<?xml version="1.0" encoding="UTF-8"?>
<svg width="500px" height="500px" viewBox="0 0 500 500" version="1.1" xmlns="http://www.w3.org/2000/svg" xmlns:xlink="http://www.w3.org/1999/xlink">
    <title>theHyphalKnot</title>
    <g id="theHyphalKnot" stroke="none" stroke-width="1" fill="none" fill-rule="evenodd">
        <path d="M250.278685,46.25 C255.460172,46.25 260.369144,48.2529172 264.934048,51.6687312 C270.483608,55.8213409 275.491004,61.9868677 279.888849,69.6233998 C281.663126,72.7043005 283.180519,75.7508474 284.412741,78.740432 C286.693958,76.4470948 289.259578,74.2105626 292.075111,72.0400061 C299.076127,66.6427685 306.078459,62.8436924 312.81083,61.1196913 C318.347805,59.7018029 323.661555,59.7259012 328.458623,61.7129119 C333.245751,63.6958053 337.014599,67.4249078 339.92486,72.3277093 C343.462871,78.2880576 345.729646,85.9006557 346.870313,94.6390389 C347.330575,98.1650064 347.566583,101.560886 347.560682,104.79426 C350.546048,103.548065 353.772486,102.463254 357.20459,101.535112 C365.737458,99.2275747 373.660409,98.3971612 380.540038,99.3806588 C386.198195,100.189537 391.09843,102.24531 394.770067,105.916947 C398.433952,109.580832 400.488846,114.468311 401.301366,120.111572 C402.289148,126.972095 401.470194,134.872607 399.18005,143.382262 C398.256109,146.815417 397.174814,150.042634 395.932703,153.028273 C399.167333,153.019576 402.562881,153.252152 406.088463,153.708104 C414.855064,154.841859 422.492754,157.106768 428.472332,160.648179 C433.390205,163.560794 437.130652,167.33528 439.117701,172.132441 C441.100591,176.91956 441.128699,182.221401 439.719768,187.746058 C438.006926,194.462398 434.226876,201.448155 428.854502,208.433684 C426.687058,211.251943 424.453048,213.81972 422.161735,216.102474 C425.153906,217.332303 428.202432,218.846713 431.285615,220.617335 C438.950998,225.019441 445.140562,230.034673 449.309744,235.594751 C452.738686,240.167636 454.75,245.086243 454.75,250.278685 C454.75,255.460172 452.747083,260.369144 449.331269,264.934048 C445.178659,270.483608 439.013132,275.491004 431.3766,279.888849 C428.295699,281.663126 425.249153,283.180519 422.259568,284.412741 C424.552905,286.693958 426.789437,289.259578 428.959994,292.075111 C434.357232,299.076127 438.156308,306.078459 439.880309,312.81083 C441.298197,318.347805 441.274099,323.661555 439.287088,328.458623 C437.304195,333.245751 433.575092,337.014599 428.672291,339.92486 C422.711942,343.462871 415.099344,345.729646 406.360961,346.870313 C402.834994,347.330575 399.439114,347.566583 396.20574,347.560682 C397.451935,350.546048 398.536746,353.772486 399.464888,357.20459 C401.772425,365.737458 402.602839,373.660409 401.619341,380.540038 C400.810463,386.198195 398.75469,391.09843 395.083053,394.770067 C391.419168,398.433952 386.531689,400.488846 380.888428,401.301366 C374.027905,402.289148 366.127393,401.470194 357.617738,399.18005 C354.184583,398.256109 350.957366,397.174814 347.971727,395.932703 C347.980424,399.167333 347.747848,402.562881 347.291896,406.088463 C346.158141,414.855064 343.893232,422.492754 340.351821,428.472332 C337.439206,433.390205 333.66472,437.130652 328.867559,439.117701 C324.08044,441.100591 318.778599,441.128699 313.253942,439.719768 C306.537602,438.006926 299.551845,434.226876 292.566316,428.854502 C289.748057,426.687058 287.18028,424.453048 284.897526,422.161735 C283.667697,425.153906 282.153287,428.202432 280.382665,431.285615 C275.980559,438.950998 270.965327,445.140562 265.405249,449.309744 C260.832364,452.738686 255.913757,454.75 250.721315,454.75 C245.539828,454.75 240.630856,452.747083 236.065952,449.331269 C230.516392,445.178659 225.508996,439.013132 221.111151,431.3766 C219.336874,428.295699 217.819481,425.249153 216.587259,422.259568 C214.306042,424.552905 211.740422,426.789437 208.924889,428.959994 C201.923873,434.357232 194.921541,438.156308 188.18917,439.880309 C182.652195,441.298197 177.338445,441.274099 172.541377,439.287088 C167.754249,437.304195 163.985401,433.575092 161.07514,428.672291 C157.537129,422.711942 155.270354,415.099344 154.129687,406.360961 C153.669425,402.834994 153.433417,399.439114 153.439318,396.20574 C150.453952,397.451935 147.227514,398.536746 143.79541,399.464888 C135.262542,401.772425 127.339591,402.602839 120.459962,401.619341 C114.801805,400.810463 109.90157,398.75469 106.229933,395.083053 C102.566048,391.419168 100.511154,386.531689 99.6986343,380.888428 C98.7108524,374.027905 99.5298058,366.127393 101.81995,357.617738 C102.743891,354.184583 103.825186,350.957366 105.067297,347.971727 C101.832667,347.980424 98.4371191,347.747848 94.9115372,347.291896 C86.1449363,346.158141 78.5072457,343.893232 72.5276683,340.351821 C67.6097954,337.439206 63.869348,333.66472 61.882299,328.867559 C59.8994095,324.08044 59.8713012,318.778599 61.2802325,313.253942 C62.9930736,306.537602 66.7731238,299.551845 72.1454984,292.566316 C74.3129421,289.748057 76.5469516,287.18028 78.8382649,284.897526 C75.8460935,283.667697 72.797568,282.153287 69.7143848,280.382665 C62.0490021,275.980559 55.859438,270.965327 51.6902559,265.405249 C48.2613136,260.832364 46.25,255.913757 46.25,250.721315 C46.25,245.539828 48.2529172,240.630856 51.6687312,236.065952 C55.8213409,230.516392 61.9868677,225.508996 69.6233998,221.111151 C72.7043005,219.336874 75.7508474,217.819481 78.740432,216.587259 C76.4470948,214.306042 74.2105626,211.740422 72.0400061,208.924889 C66.6427685,201.923873 62.8436924,194.921541 61.1196913,188.18917 C59.7018029,182.652195 59.7259012,177.338445 61.7129119,172.541377 C63.6958053,167.754249 67.4249078,163.985401 72.3277093,161.07514 C78.2880576,157.537129 85.9006557,155.270354 94.6390389,154.129687 C98.1650064,153.669425 101.560886,153.433417 104.79426,153.439318 C103.548065,150.453952 102.463254,147.227514 101.535112,143.79541 C99.2275747,135.262542 98.3971612,127.339591 99.3806588,120.459962 C100.189537,114.801805 102.24531,109.90157 105.916947,106.229933 C109.580832,102.566048 114.468311,100.511154 120.111572,99.6986343 C126.972095,98.7108524 134.872607,99.5298058 143.382262,101.81995 C146.815417,102.743891 150.042634,103.825186 153.028273,105.067297 C153.019576,101.832667 153.252152,98.4371191 153.708104,94.9115372 C154.841859,86.1449363 157.106768,78.5072457 160.648179,72.5276683 C163.560794,67.6097954 167.33528,63.869348 172.132441,61.882299 C176.91956,59.8994095 182.221401,59.8713012 187.746058,61.2802325 C194.462398,62.9930736 201.448155,66.7731238 208.433684,72.1454984 C211.251943,74.3129421 213.81972,76.5469516 216.102474,78.8382649 C217.332303,75.8460935 218.846713,72.797568 220.617335,69.7143848 C225.019441,62.0490021 230.034673,55.859438 235.594751,51.6902559 C240.167636,48.2613136 245.086243,46.25 250.278685,46.25 Z" id="Combined-Shape" stroke="#000000" stroke-width="16.5" opacity="0.25"></path>
        <path d="M251.316178,82.25 C255.330188,82.25 259.120578,83.8301265 262.651278,86.4720409 C267.127607,89.82154 271.15264,94.805844 274.698648,100.963138 C276.543075,104.165802 278.047971,107.321291 279.159803,110.393483 C281.361404,107.978419 283.957562,105.636323 286.884724,103.379825 C292.530235,99.0277987 298.170311,95.947514 303.601287,94.556842 C307.884083,93.4601763 312.000184,93.4475092 315.716659,94.9869232 C319.425177,96.5230416 322.322383,99.4334721 324.573322,103.225507 C327.427135,108.033171 329.238362,114.178529 330.158115,121.224291 C330.636572,124.889516 330.819323,128.381174 330.670521,131.644876 C333.628866,130.255815 336.923913,129.085206 340.492095,128.120406 C347.373108,126.25985 353.762478,125.572253 359.312128,126.365673 C363.688607,126.991368 367.496258,128.554826 370.340734,131.399303 C373.179122,134.23769 374.742019,138.035308 375.370462,142.400109 C376.167222,147.933947 375.488835,154.304677 373.642255,161.166121 C372.681547,164.735881 371.514012,168.032059 370.128045,170.98976 C373.392745,170.838491 376.884919,171.017896 380.550674,171.491972 C387.61985,172.406198 393.785965,174.215993 398.609535,177.072744 C402.413445,179.325603 405.33296,182.227182 406.872386,185.943684 C408.408529,189.65226 408.399153,193.758949 407.309383,198.032049 C405.927735,203.449629 402.862928,209.075886 398.531037,214.708449 C396.277312,217.638868 393.9372,220.237372 391.524082,222.439688 C394.598498,223.549167 397.756565,225.051305 400.962251,226.892204 C407.143487,230.441845 412.147653,234.473382 415.510822,238.958456 C418.163093,242.495487 419.75,246.293456 419.75,250.316178 C419.75,254.330188 418.169873,258.120578 415.527959,261.651278 C412.17846,266.127607 407.194156,270.15264 401.036862,273.698648 C397.834198,275.543075 394.678709,277.047971 391.606517,278.159803 C394.021581,280.361404 396.363677,282.957562 398.620175,285.884724 C402.972201,291.530235 406.052486,297.170311 407.443158,302.601287 C408.539824,306.884083 408.552491,311.000184 407.013077,314.716659 C405.476958,318.425177 402.566528,321.322383 398.774493,323.573322 C393.966829,326.427135 387.821471,328.238362 380.775709,329.158115 C377.110484,329.636572 373.618826,329.819323 370.355124,329.670521 C371.744185,332.628866 372.914794,335.923913 373.879594,339.492095 C375.74015,346.373108 376.427747,352.762478 375.634327,358.312128 C375.008632,362.688607 373.445174,366.496258 370.600697,369.340734 C367.76231,372.179122 363.964692,373.742019 359.599891,374.370462 C354.066053,375.167222 347.695323,374.488835 340.833879,372.642255 C337.264119,371.681547 333.967941,370.514012 331.01024,369.128045 C331.161509,372.392745 330.982104,375.884919 330.508028,379.550674 C329.593802,386.61985 327.784007,392.785965 324.927256,397.609535 C322.674397,401.413445 319.772818,404.33296 316.056316,405.872386 C312.34774,407.408529 308.241051,407.399153 303.967951,406.309383 C298.550371,404.927735 292.924114,401.862928 287.291551,397.531037 C284.361132,395.277312 281.762628,392.9372 279.560312,390.524082 C278.450833,393.598498 276.948695,396.756565 275.107796,399.962251 C271.558155,406.143487 267.526618,411.147653 263.041544,414.510822 C259.504513,417.163093 255.706544,418.75 251.683822,418.75 C247.669812,418.75 243.879422,417.169873 240.348722,414.527959 C235.872393,411.17846 231.84736,406.194156 228.301352,400.036862 C226.456925,396.834198 224.952029,393.678709 223.840197,390.606517 C221.638596,393.021581 219.042438,395.363677 216.115276,397.620175 C210.469765,401.972201 204.829689,405.052486 199.398713,406.443158 C195.115917,407.539824 190.999816,407.552491 187.283341,406.013077 C183.574823,404.476958 180.677617,401.566528 178.426678,397.774493 C175.572865,392.966829 173.761638,386.821471 172.841885,379.775709 C172.363428,376.110484 172.180677,372.618826 172.329479,369.355124 C169.371134,370.744185 166.076087,371.914794 162.507905,372.879594 C155.626892,374.74015 149.237522,375.427747 143.687872,374.634327 C139.311393,374.008632 135.503742,372.445174 132.659266,369.600697 C129.820878,366.76231 128.257981,362.964692 127.629538,358.599891 C126.832778,353.066053 127.511165,346.695323 129.357745,339.833879 C130.318453,336.264119 131.485988,332.967941 132.871955,330.01024 C129.607255,330.161509 126.115081,329.982104 122.449326,329.508028 C115.38015,328.593802 109.214035,326.784007 104.390465,323.927256 C100.586555,321.674397 97.6670395,318.772818 96.1276141,315.056316 C94.5914714,311.34774 94.6008465,307.241051 95.6906169,302.967951 C97.0722647,297.550371 100.137072,291.924114 104.468963,286.291551 C106.722688,283.361132 109.0628,280.762628 111.475918,278.560312 C108.401502,277.450833 105.243435,275.948695 102.037749,274.107796 C95.856513,270.558155 90.8523472,266.526618 87.489178,262.041544 C84.8369068,258.504513 83.25,254.706544 83.25,250.683822 C83.25,246.669812 84.8301265,242.879422 87.4720409,239.348722 C90.82154,234.872393 95.805844,230.84736 101.963138,227.301352 C105.165802,225.456925 108.321291,223.952029 111.393483,222.840197 C108.978419,220.638596 106.636323,218.042438 104.379825,215.115276 C100.027799,209.469765 96.947514,203.829689 95.556842,198.398713 C94.4601763,194.115917 94.4475092,189.999816 95.9869232,186.283341 C97.5230416,182.574823 100.433472,179.677617 104.225507,177.426678 C109.033171,174.572865 115.178529,172.761638 122.224291,171.841885 C125.889516,171.363428 129.381174,171.180677 132.644876,171.329479 C131.255815,168.371134 130.085206,165.076087 129.120406,161.507905 C127.25985,154.626892 126.572253,148.237522 127.365673,142.687872 C127.991368,138.311393 129.554826,134.503742 132.399303,131.659266 C135.23769,128.820878 139.035308,127.257981 143.400109,126.629538 C148.933947,125.832778 155.304677,126.511165 162.166121,128.357745 C165.735881,129.318453 169.032059,130.485988 171.98976,131.871955 C171.838491,128.607255 172.017896,125.115081 172.491972,121.449326 C173.406198,114.38015 175.215993,108.214035 178.072744,103.390465 C180.325603,99.5865553 183.227182,96.6670395 186.943684,95.1276141 C190.65226,93.5914714 194.758949,93.6008465 199.032049,94.6906169 C204.449629,96.0722647 210.075886,99.1370722 215.708449,103.468963 C218.638868,105.722688 221.237372,108.0628 223.439688,110.475918 C224.549167,107.401502 226.051305,104.243435 227.892204,101.037749 C231.441845,94.856513 235.473382,89.8523472 239.958456,86.489178 C243.495487,83.8369068 247.293456,82.25 251.316178,82.25 Z" id="Combined-Shape" stroke="#000000" stroke-width="16.5" opacity="0.5"></path>
        <g id="Group" transform="translate(106.000000, 106.000000)" stroke="#000000" stroke-width="16.5">
            <path d="M144.852794,11.9068308 C148.103664,11.9068308 151.119055,13.389702 153.908885,15.7236057 C157.743769,18.931776 161.110228,23.6931726 163.992514,29.514446 C170.319062,42.2919989 174.126251,59.9626065 174.126251,79.4419123 C174.126251,105.061962 161.399734,127.411884 151.193479,139.506655 C149.745766,141.222246 148.103182,143.022521 146.280582,144.863489 C148.118759,146.691555 149.770432,148.480092 151.222452,150.181958 C161.472296,162.195472 174.420664,184.713589 174.420664,210.558088 C174.420664,230.037394 170.613475,247.708001 164.286927,260.485554 C161.404641,266.306827 158.038182,271.068224 154.203298,274.276394 C151.413468,276.610298 148.398077,278.093169 145.147206,278.093169 C141.896336,278.093169 138.880945,276.610298 136.091115,274.276394 C132.256231,271.068224 128.889772,266.306827 126.007486,260.485554 C119.680938,247.708001 115.873749,230.037394 115.873749,210.558088 C115.873749,184.937768 128.600531,162.587643 138.806842,150.492964 C140.254564,148.777386 141.897161,146.977121 143.72214,145.138014 C141.882945,143.309224 140.23042,141.51996 138.777734,139.817422 C128.527603,127.804342 115.579336,105.286298 115.579336,79.4419123 C115.579336,59.9626065 119.386525,42.2919989 125.713073,29.514446 C128.595359,23.6931726 131.961818,18.931776 135.796702,15.7236057 C138.586532,13.389702 141.601923,11.9068308 144.852794,11.9068308 Z" id="Combined-Shape"></path>
            <path d="M144.852794,11.9068308 C148.103664,11.9068308 151.119055,13.389702 153.908885,15.7236057 C157.743769,18.931776 161.110228,23.6931726 163.992514,29.514446 C170.319062,42.2919989 174.126251,59.9626065 174.126251,79.4419123 C174.126251,105.061962 161.399734,127.411884 151.193479,139.506655 C149.745766,141.222246 148.103182,143.022521 146.280582,144.863489 C148.118759,146.691555 149.770432,148.480092 151.222452,150.181958 C161.472296,162.195472 174.420664,184.713589 174.420664,210.558088 C174.420664,230.037394 170.613475,247.708001 164.286927,260.485554 C161.404641,266.306827 158.038182,271.068224 154.203298,274.276394 C151.413468,276.610298 148.398077,278.093169 145.147206,278.093169 C141.896336,278.093169 138.880945,276.610298 136.091115,274.276394 C132.256231,271.068224 128.889772,266.306827 126.007486,260.485554 C119.680938,247.708001 115.873749,230.037394 115.873749,210.558088 C115.873749,184.937768 128.600531,162.587643 138.806842,150.492964 C140.254564,148.777386 141.897161,146.977121 143.72214,145.138014 C141.882945,143.309224 140.23042,141.51996 138.777734,139.817422 C128.527603,127.804342 115.579336,105.286298 115.579336,79.4419123 C115.579336,59.9626065 119.386525,42.2919989 125.713073,29.514446 C128.595359,23.6931726 131.961818,18.931776 135.796702,15.7236057 C138.586532,13.389702 141.601923,11.9068308 144.852794,11.9068308 Z" id="Combined-Shape" transform="translate(145.000000, 145.000000) rotate(90.000000) translate(-145.000000, -145.000000) "></path>
            <path d="M144.852794,11.9068308 C148.103664,11.9068308 151.119055,13.389702 153.908885,15.7236057 C157.743769,18.931776 161.110228,23.6931726 163.992514,29.514446 C170.319062,42.2919989 174.126251,59.9626065 174.126251,79.4419123 C174.126251,105.061962 161.399734,127.411884 151.193479,139.506655 C149.745766,141.222246 148.103182,143.022521 146.280582,144.863489 C148.118759,146.691555 149.770432,148.480092 151.222452,150.181958 C161.472296,162.195472 174.420664,184.713589 174.420664,210.558088 C174.420664,230.037394 170.613475,247.708001 164.286927,260.485554 C161.404641,266.306827 158.038182,271.068224 154.203298,274.276394 C151.413468,276.610298 148.398077,278.093169 145.147206,278.093169 C141.896336,278.093169 138.880945,276.610298 136.091115,274.276394 C132.256231,271.068224 128.889772,266.306827 126.007486,260.485554 C119.680938,247.708001 115.873749,230.037394 115.873749,210.558088 C115.873749,184.937768 128.600531,162.587643 138.806842,150.492964 C140.254564,148.777386 141.897161,146.977121 143.72214,145.138014 C141.882945,143.309224 140.23042,141.51996 138.777734,139.817422 C128.527603,127.804342 115.579336,105.286298 115.579336,79.4419123 C115.579336,59.9626065 119.386525,42.2919989 125.713073,29.514446 C128.595359,23.6931726 131.961818,18.931776 135.796702,15.7236057 C138.586532,13.389702 141.601923,11.9068308 144.852794,11.9068308 Z" id="Combined-Shape" transform="translate(145.000000, 145.000000) rotate(45.000000) translate(-145.000000, -145.000000) "></path>
            <path d="M144.852794,11.9068308 C148.103664,11.9068308 151.119055,13.389702 153.908885,15.7236057 C157.743769,18.931776 161.110228,23.6931726 163.992514,29.514446 C170.319062,42.2919989 174.126251,59.9626065 174.126251,79.4419123 C174.126251,105.061962 161.399734,127.411884 151.193479,139.506655 C149.745766,141.222246 148.103182,143.022521 146.280582,144.863489 C148.118759,146.691555 149.770432,148.480092 151.222452,150.181958 C161.472296,162.195472 174.420664,184.713589 174.420664,210.558088 C174.420664,230.037394 170.613475,247.708001 164.286927,260.485554 C161.404641,266.306827 158.038182,271.068224 154.203298,274.276394 C151.413468,276.610298 148.398077,278.093169 145.147206,278.093169 C141.896336,278.093169 138.880945,276.610298 136.091115,274.276394 C132.256231,271.068224 128.889772,266.306827 126.007486,260.485554 C119.680938,247.708001 115.873749,230.037394 115.873749,210.558088 C115.873749,184.937768 128.600531,162.587643 138.806842,150.492964 C140.254564,148.777386 141.897161,146.977121 143.72214,145.138014 C141.882945,143.309224 140.23042,141.51996 138.777734,139.817422 C128.527603,127.804342 115.579336,105.286298 115.579336,79.4419123 C115.579336,59.9626065 119.386525,42.2919989 125.713073,29.514446 C128.595359,23.6931726 131.961818,18.931776 135.796702,15.7236057 C138.586532,13.389702 141.601923,11.9068308 144.852794,11.9068308 Z" id="Combined-Shape" transform="translate(145.000000, 145.000000) rotate(135.000000) translate(-145.000000, -145.000000) "></path>
            <path d="M144.852794,11.9068308 C148.103664,11.9068308 151.119055,13.389702 153.908885,15.7236057 C157.743769,18.931776 161.110228,23.6931726 163.992514,29.514446 C170.319062,42.2919989 174.126251,59.9626065 174.126251,79.4419123 C174.126251,105.061962 161.399734,127.411884 151.193479,139.506655 C149.745766,141.222246 148.103182,143.022521 146.280582,144.863489 C148.118759,146.691555 149.770432,148.480092 151.222452,150.181958 C161.472296,162.195472 174.420664,184.713589 174.420664,210.558088 C174.420664,230.037394 170.613475,247.708001 164.286927,260.485554 C161.404641,266.306827 158.038182,271.068224 154.203298,274.276394 C151.413468,276.610298 148.398077,278.093169 145.147206,278.093169 C141.896336,278.093169 138.880945,276.610298 136.091115,274.276394 C132.256231,271.068224 128.889772,266.306827 126.007486,260.485554 C119.680938,247.708001 115.873749,230.037394 115.873749,210.558088 C115.873749,184.937768 128.600531,162.587643 138.806842,150.492964 C140.254564,148.777386 141.897161,146.977121 143.72214,145.138014 C141.882945,143.309224 140.23042,141.51996 138.777734,139.817422 C128.527603,127.804342 115.579336,105.286298 115.579336,79.4419123 C115.579336,59.9626065 119.386525,42.2919989 125.713073,29.514446 C128.595359,23.6931726 131.961818,18.931776 135.796702,15.7236057 C138.586532,13.389702 141.601923,11.9068308 144.852794,11.9068308 Z" id="Combined-Shape" transform="translate(145.000000, 145.000000) rotate(22.500000) translate(-145.000000, -145.000000) "></path>
            <path d="M144.852794,11.9068308 C148.103664,11.9068308 151.119055,13.389702 153.908885,15.7236057 C157.743769,18.931776 161.110228,23.6931726 163.992514,29.514446 C170.319062,42.2919989 174.126251,59.9626065 174.126251,79.4419123 C174.126251,105.061962 161.399734,127.411884 151.193479,139.506655 C149.745766,141.222246 148.103182,143.022521 146.280582,144.863489 C148.118759,146.691555 149.770432,148.480092 151.222452,150.181958 C161.472296,162.195472 174.420664,184.713589 174.420664,210.558088 C174.420664,230.037394 170.613475,247.708001 164.286927,260.485554 C161.404641,266.306827 158.038182,271.068224 154.203298,274.276394 C151.413468,276.610298 148.398077,278.093169 145.147206,278.093169 C141.896336,278.093169 138.880945,276.610298 136.091115,274.276394 C132.256231,271.068224 128.889772,266.306827 126.007486,260.485554 C119.680938,247.708001 115.873749,230.037394 115.873749,210.558088 C115.873749,184.937768 128.600531,162.587643 138.806842,150.492964 C140.254564,148.777386 141.897161,146.977121 143.72214,145.138014 C141.882945,143.309224 140.23042,141.51996 138.777734,139.817422 C128.527603,127.804342 115.579336,105.286298 115.579336,79.4419123 C115.579336,59.9626065 119.386525,42.2919989 125.713073,29.514446 C128.595359,23.6931726 131.961818,18.931776 135.796702,15.7236057 C138.586532,13.389702 141.601923,11.9068308 144.852794,11.9068308 Z" id="Combined-Shape" transform="translate(145.000000, 145.000000) rotate(112.500000) translate(-145.000000, -145.000000) "></path>
            <path d="M144.852794,11.9068308 C148.103664,11.9068308 151.119055,13.389702 153.908885,15.7236057 C157.743769,18.931776 161.110228,23.6931726 163.992514,29.514446 C170.319062,42.2919989 174.126251,59.9626065 174.126251,79.4419123 C174.126251,105.061962 161.399734,127.411884 151.193479,139.506655 C149.745766,141.222246 148.103182,143.022521 146.280582,144.863489 C148.118759,146.691555 149.770432,148.480092 151.222452,150.181958 C161.472296,162.195472 174.420664,184.713589 174.420664,210.558088 C174.420664,230.037394 170.613475,247.708001 164.286927,260.485554 C161.404641,266.306827 158.038182,271.068224 154.203298,274.276394 C151.413468,276.610298 148.398077,278.093169 145.147206,278.093169 C141.896336,278.093169 138.880945,276.610298 136.091115,274.276394 C132.256231,271.068224 128.889772,266.306827 126.007486,260.485554 C119.680938,247.708001 115.873749,230.037394 115.873749,210.558088 C115.873749,184.937768 128.600531,162.587643 138.806842,150.492964 C140.254564,148.777386 141.897161,146.977121 143.72214,145.138014 C141.882945,143.309224 140.23042,141.51996 138.777734,139.817422 C128.527603,127.804342 115.579336,105.286298 115.579336,79.4419123 C115.579336,59.9626065 119.386525,42.2919989 125.713073,29.514446 C128.595359,23.6931726 131.961818,18.931776 135.796702,15.7236057 C138.586532,13.389702 141.601923,11.9068308 144.852794,11.9068308 Z" id="Combined-Shape" transform="translate(145.000000, 145.000000) rotate(67.500000) translate(-145.000000, -145.000000) "></path>
            <path d="M144.852794,11.9068308 C148.103664,11.9068308 151.119055,13.389702 153.908885,15.7236057 C157.743769,18.931776 161.110228,23.6931726 163.992514,29.514446 C170.319062,42.2919989 174.126251,59.9626065 174.126251,79.4419123 C174.126251,105.061962 161.399734,127.411884 151.193479,139.506655 C149.745766,141.222246 148.103182,143.022521 146.280582,144.863489 C148.118759,146.691555 149.770432,148.480092 151.222452,150.181958 C161.472296,162.195472 174.420664,184.713589 174.420664,210.558088 C174.420664,230.037394 170.613475,247.708001 164.286927,260.485554 C161.404641,266.306827 158.038182,271.068224 154.203298,274.276394 C151.413468,276.610298 148.398077,278.093169 145.147206,278.093169 C141.896336,278.093169 138.880945,276.610298 136.091115,274.276394 C132.256231,271.068224 128.889772,266.306827 126.007486,260.485554 C119.680938,247.708001 115.873749,230.037394 115.873749,210.558088 C115.873749,184.937768 128.600531,162.587643 138.806842,150.492964 C140.254564,148.777386 141.897161,146.977121 143.72214,145.138014 C141.882945,143.309224 140.23042,141.51996 138.777734,139.817422 C128.527603,127.804342 115.579336,105.286298 115.579336,79.4419123 C115.579336,59.9626065 119.386525,42.2919989 125.713073,29.514446 C128.595359,23.6931726 131.961818,18.931776 135.796702,15.7236057 C138.586532,13.389702 141.601923,11.9068308 144.852794,11.9068308 Z" id="Combined-Shape" transform="translate(145.000000, 145.000000) rotate(157.500000) translate(-145.000000, -145.000000) "></path>
        </g>
    </g>
</svg>