<?xml version="1.0" encoding="UTF-8"?>
<svg width="425px" height="425px" viewBox="0 0 425 425" version="1.1" xmlns="http://www.w3.org/2000/svg" xmlns:xlink="http://www.w3.org/1999/xlink">
    <title>theHyphalKnotBlack</title>
    <g id="theHyphalKnotBlack" stroke="none" stroke-width="1" fill="none" fill-rule="evenodd">
        <path d="M212.278685,8.25 C217.460172,8.25 222.369144,10.2529172 226.934048,13.6687312 C232.483608,17.8213409 237.491004,23.9868677 241.888849,31.6233998 C243.663126,34.7043005 245.180519,37.7508474 246.412741,40.740432 C248.693958,38.4470948 251.259578,36.2105626 254.075111,34.0400061 C261.076127,28.6427685 268.078459,24.8436924 274.81083,23.1196913 C280.347805,21.7018029 285.661555,21.7259012 290.458623,23.7129119 C295.245751,25.6958053 299.014599,29.4249078 301.92486,34.3277093 C305.462871,40.2880576 307.729646,47.9006557 308.870313,56.6390389 C309.330575,60.1650064 309.566583,63.5608856 309.560682,66.7942603 C312.546048,65.5480648 315.772486,64.4632535 319.20459,63.535112 C327.737458,61.2275747 335.660409,60.3971612 342.540038,61.3806588 C348.198195,62.1895373 353.09843,64.2453102 356.770067,67.9169467 C360.433952,71.5808323 362.488846,76.4683109 363.301366,82.1115719 C364.289148,88.9720951 363.470194,96.8726067 361.18005,105.382262 C360.256109,108.815417 359.174814,112.042634 357.932703,115.028273 C361.167333,115.019576 364.562881,115.252152 368.088463,115.708104 C376.855064,116.841859 384.492754,119.106768 390.472332,122.648179 C395.390205,125.560794 399.130652,129.33528 401.117701,134.132441 C403.100591,138.91956 403.128699,144.221401 401.719768,149.746058 C400.006926,156.462398 396.226876,163.448155 390.854502,170.433684 C388.687058,173.251943 386.453048,175.81972 384.161735,178.102474 C387.153906,179.332303 390.202432,180.846713 393.285615,182.617335 C400.950998,187.019441 407.140562,192.034673 411.309744,197.594751 C414.738686,202.167636 416.75,207.086243 416.75,212.278685 C416.75,217.460172 414.747083,222.369144 411.331269,226.934048 C407.178659,232.483608 401.013132,237.491004 393.3766,241.888849 C390.295699,243.663126 387.249153,245.180519 384.259568,246.412741 C386.552905,248.693958 388.789437,251.259578 390.959994,254.075111 C396.357232,261.076127 400.156308,268.078459 401.880309,274.81083 C403.298197,280.347805 403.274099,285.661555 401.287088,290.458623 C399.304195,295.245751 395.575092,299.014599 390.672291,301.92486 C384.711942,305.462871 377.099344,307.729646 368.360961,308.870313 C364.834994,309.330575 361.439114,309.566583 358.20574,309.560682 C359.451935,312.546048 360.536746,315.772486 361.464888,319.20459 C363.772425,327.737458 364.602839,335.660409 363.619341,342.540038 C362.810463,348.198195 360.75469,353.09843 357.083053,356.770067 C353.419168,360.433952 348.531689,362.488846 342.888428,363.301366 C336.027905,364.289148 328.127393,363.470194 319.617738,361.18005 C316.184583,360.256109 312.957366,359.174814 309.971727,357.932703 C309.980424,361.167333 309.747848,364.562881 309.291896,368.088463 C308.158141,376.855064 305.893232,384.492754 302.351821,390.472332 C299.439206,395.390205 295.66472,399.130652 290.867559,401.117701 C286.08044,403.100591 280.778599,403.128699 275.253942,401.719768 C268.537602,400.006926 261.551845,396.226876 254.566316,390.854502 C251.748057,388.687058 249.18028,386.453048 246.897526,384.161735 C245.667697,387.153906 244.153287,390.202432 242.382665,393.285615 C237.980559,400.950998 232.965327,407.140562 227.405249,411.309744 C222.832364,414.738686 217.913757,416.75 212.721315,416.75 C207.539828,416.75 202.630856,414.747083 198.065952,411.331269 C192.516392,407.178659 187.508996,401.013132 183.111151,393.3766 C181.336874,390.295699 179.819481,387.249153 178.587259,384.259568 C176.306042,386.552905 173.740422,388.789437 170.924889,390.959994 C163.923873,396.357232 156.921541,400.156308 150.18917,401.880309 C144.652195,403.298197 139.338445,403.274099 134.541377,401.287088 C129.754249,399.304195 125.985401,395.575092 123.07514,390.672291 C119.537129,384.711942 117.270354,377.099344 116.129687,368.360961 C115.669425,364.834994 115.433417,361.439114 115.439318,358.20574 C112.453952,359.451935 109.227514,360.536746 105.79541,361.464888 C97.2625418,363.772425 89.3395911,364.602839 82.4599624,363.619341 C76.8018052,362.810463 71.9015697,360.75469 68.2299332,357.083053 C64.5660476,353.419168 62.5111541,348.531689 61.6986343,342.888428 C60.7108524,336.027905 61.5298058,328.127393 63.8199501,319.617738 C64.7438913,316.184583 65.8251862,312.957366 67.0672968,309.971727 C63.8326667,309.980424 60.4371191,309.747848 56.9115372,309.291896 C48.1449363,308.158141 40.5072457,305.893232 34.5276683,302.351821 C29.6097954,299.439206 25.869348,295.66472 23.882299,290.867559 C21.8994095,286.08044 21.8713012,280.778599 23.2802325,275.253942 C24.9930736,268.537602 28.7731238,261.551845 34.1454984,254.566316 C36.3129421,251.748057 38.5469516,249.18028 40.8382649,246.897526 C37.8460935,245.667697 34.797568,244.153287 31.7143848,242.382665 C24.0490021,237.980559 17.859438,232.965327 13.6902559,227.405249 C10.2613136,222.832364 8.25,217.913757 8.25,212.721315 C8.25,207.539828 10.2529172,202.630856 13.6687312,198.065952 C17.8213409,192.516392 23.9868677,187.508996 31.6233998,183.111151 C34.7043005,181.336874 37.7508474,179.819481 40.740432,178.587259 C38.4470948,176.306042 36.2105626,173.740422 34.0400061,170.924889 C28.6427685,163.923873 24.8436924,156.921541 23.1196913,150.18917 C21.7018029,144.652195 21.7259012,139.338445 23.7129119,134.541377 C25.6958053,129.754249 29.4249078,125.985401 34.3277093,123.07514 C40.2880576,119.537129 47.9006557,117.270354 56.6390389,116.129687 C60.1650064,115.669425 63.5608856,115.433417 66.7942603,115.439318 C65.5480648,112.453952 64.4632535,109.227514 63.535112,105.79541 C61.2275747,97.2625418 60.3971612,89.3395911 61.3806588,82.4599624 C62.1895373,76.8018052 64.2453102,71.9015697 67.9169467,68.2299332 C71.5808323,64.5660476 76.4683109,62.5111541 82.1115719,61.6986343 C88.9720951,60.7108524 96.8726067,61.5298058 105.382262,63.8199501 C108.815417,64.7438913 112.042634,65.8251862 115.028273,67.0672968 C115.019576,63.8326667 115.252152,60.4371191 115.708104,56.9115372 C116.841859,48.1449363 119.106768,40.5072457 122.648179,34.5276683 C125.560794,29.6097954 129.33528,25.869348 134.132441,23.882299 C138.91956,21.8994095 144.221401,21.8713012 149.746058,23.2802325 C156.462398,24.9930736 163.448155,28.7731238 170.433684,34.1454984 C173.251943,36.3129421 175.81972,38.5469516 178.102474,40.8382649 C179.332303,37.8460935 180.846713,34.797568 182.617335,31.7143848 C187.019441,24.0490021 192.034673,17.859438 197.594751,13.6902559 C202.167636,10.2613136 207.086243,8.25 212.278685,8.25 Z" id="Combined-Shape" stroke="#FFFFFF" stroke-width="16.5" opacity="0.25"></path>
        <path d="M213.316178,44.25 C217.330188,44.25 221.120578,45.8301265 224.651278,48.4720409 C229.127607,51.82154 233.15264,56.805844 236.698648,62.9631375 C238.543075,66.165802 240.047971,69.3212908 241.159803,72.3934826 C243.361404,69.9784189 245.957562,67.6363231 248.884724,65.379825 C254.530235,61.0277987 260.170311,57.947514 265.601287,56.556842 C269.884083,55.4601763 274.000184,55.4475092 277.716659,56.9869232 C281.425177,58.5230416 284.322383,61.4334721 286.573322,65.2255072 C289.427135,70.0331713 291.238362,76.1785293 292.158115,83.2242914 C292.636572,86.8895155 292.819323,90.3811738 292.670521,93.6448764 C295.628866,92.2558152 298.923913,91.0852062 302.492095,90.120406 C309.373108,88.2598495 315.762478,87.5722527 321.312128,88.3656729 C325.688607,88.9913677 329.496258,90.5548256 332.340734,93.3993026 C335.179122,96.2376902 336.742019,100.035308 337.370462,104.400109 C338.167222,109.933947 337.488835,116.304677 335.642255,123.166121 C334.681547,126.735881 333.514012,130.032059 332.128045,132.98976 C335.392745,132.838491 338.884919,133.017896 342.550674,133.491972 C349.61985,134.406198 355.785965,136.215993 360.609535,139.072744 C364.413445,141.325603 367.33296,144.227182 368.872386,147.943684 C370.408529,151.65226 370.399153,155.758949 369.309383,160.032049 C367.927735,165.449629 364.862928,171.075886 360.531037,176.708449 C358.277312,179.638868 355.9372,182.237372 353.524082,184.439688 C356.598498,185.549167 359.756565,187.051305 362.962251,188.892204 C369.143487,192.441845 374.147653,196.473382 377.510822,200.958456 C380.163093,204.495487 381.75,208.293456 381.75,212.316178 C381.75,216.330188 380.169873,220.120578 377.527959,223.651278 C374.17846,228.127607 369.194156,232.15264 363.036862,235.698648 C359.834198,237.543075 356.678709,239.047971 353.606517,240.159803 C356.021581,242.361404 358.363677,244.957562 360.620175,247.884724 C364.972201,253.530235 368.052486,259.170311 369.443158,264.601287 C370.539824,268.884083 370.552491,273.000184 369.013077,276.716659 C367.476958,280.425177 364.566528,283.322383 360.774493,285.573322 C355.966829,288.427135 349.821471,290.238362 342.775709,291.158115 C339.110484,291.636572 335.618826,291.819323 332.355124,291.670521 C333.744185,294.628866 334.914794,297.923913 335.879594,301.492095 C337.74015,308.373108 338.427747,314.762478 337.634327,320.312128 C337.008632,324.688607 335.445174,328.496258 332.600697,331.340734 C329.76231,334.179122 325.964692,335.742019 321.599891,336.370462 C316.066053,337.167222 309.695323,336.488835 302.833879,334.642255 C299.264119,333.681547 295.967941,332.514012 293.01024,331.128045 C293.161509,334.392745 292.982104,337.884919 292.508028,341.550674 C291.593802,348.61985 289.784007,354.785965 286.927256,359.609535 C284.674397,363.413445 281.772818,366.33296 278.056316,367.872386 C274.34774,369.408529 270.241051,369.399153 265.967951,368.309383 C260.550371,366.927735 254.924114,363.862928 249.291551,359.531037 C246.361132,357.277312 243.762628,354.9372 241.560312,352.524082 C240.450833,355.598498 238.948695,358.756565 237.107796,361.962251 C233.558155,368.143487 229.526618,373.147653 225.041544,376.510822 C221.504513,379.163093 217.706544,380.75 213.683822,380.75 C209.669812,380.75 205.879422,379.169873 202.348722,376.527959 C197.872393,373.17846 193.84736,368.194156 190.301352,362.036862 C188.456925,358.834198 186.952029,355.678709 185.840197,352.606517 C183.638596,355.021581 181.042438,357.363677 178.115276,359.620175 C172.469765,363.972201 166.829689,367.052486 161.398713,368.443158 C157.115917,369.539824 152.999816,369.552491 149.283341,368.013077 C145.574823,366.476958 142.677617,363.566528 140.426678,359.774493 C137.572865,354.966829 135.761638,348.821471 134.841885,341.775709 C134.363428,338.110484 134.180677,334.618826 134.329479,331.355124 C131.371134,332.744185 128.076087,333.914794 124.507905,334.879594 C117.626892,336.74015 111.237522,337.427747 105.687872,336.634327 C101.311393,336.008632 97.5037425,334.445174 94.6592655,331.600697 C91.820878,328.76231 90.2579808,324.964692 89.629538,320.599891 C88.8327777,315.066053 89.511165,308.695323 91.357745,301.833879 C92.3184534,298.264119 93.4859879,294.967941 94.8719552,292.01024 C91.6072553,292.161509 88.1150807,291.982104 84.4493261,291.508028 C77.3801495,290.593802 71.2140346,288.784007 66.3904648,285.927256 C62.5865553,283.674397 59.6670395,280.772818 58.1276141,277.056316 C56.5914714,273.34774 56.6008465,269.241051 57.6906169,264.967951 C59.0722647,259.550371 62.1370722,253.924114 66.468963,248.291551 C68.7226885,245.361132 71.0627997,242.762628 73.475918,240.560312 C70.4015025,239.450833 67.2434354,237.948695 64.0377491,236.107796 C57.856513,232.558155 52.8523472,228.526618 49.489178,224.041544 C46.8369068,220.504513 45.25,216.706544 45.25,212.683822 C45.25,208.669812 46.8301265,204.879422 49.4720409,201.348722 C52.82154,196.872393 57.805844,192.84736 63.9631375,189.301352 C67.165802,187.456925 70.3212908,185.952029 73.3934826,184.840197 C70.9784189,182.638596 68.6363231,180.042438 66.379825,177.115276 C62.0277987,171.469765 58.947514,165.829689 57.556842,160.398713 C56.4601763,156.115917 56.4475092,151.999816 57.9869232,148.283341 C59.5230416,144.574823 62.4334721,141.677617 66.2255072,139.426678 C71.0331713,136.572865 77.1785293,134.761638 84.2242914,133.841885 C87.8895155,133.363428 91.3811738,133.180677 94.6448764,133.329479 C93.2558152,130.371134 92.0852062,127.076087 91.120406,123.507905 C89.2598495,116.626892 88.5722527,110.237522 89.3656729,104.687872 C89.9913677,100.311393 91.5548256,96.5037425 94.3993026,93.6592655 C97.2376902,90.820878 101.035308,89.2579808 105.400109,88.629538 C110.933947,87.8327777 117.304677,88.511165 124.166121,90.357745 C127.735881,91.3184534 131.032059,92.4859879 133.98976,93.8719552 C133.838491,90.6072553 134.017896,87.1150807 134.491972,83.4493261 C135.406198,76.3801495 137.215993,70.2140346 140.072744,65.3904648 C142.325603,61.5865553 145.227182,58.6670395 148.943684,57.1276141 C152.65226,55.5914714 156.758949,55.6008465 161.032049,56.6906169 C166.449629,58.0722647 172.075886,61.1370722 177.708449,65.468963 C180.638868,67.7226885 183.237372,70.0627997 185.439688,72.475918 C186.549167,69.4015025 188.051305,66.2434354 189.892204,63.0377491 C193.441845,56.856513 197.473382,51.8523472 201.958456,48.489178 C205.495487,45.8369068 209.293456,44.25 213.316178,44.25 Z" id="Combined-Shape" stroke="#FFFFFF" stroke-width="16.5" opacity="0.5"></path>
        <g id="Group" transform="translate(68.000000, 68.000000)" stroke="#FFFFFF" stroke-width="16.5">
            <path d="M144.852794,11.9068308 C148.103664,11.9068308 151.119055,13.389702 153.908885,15.7236057 C157.743769,18.931776 161.110228,23.6931726 163.992514,29.514446 C170.319062,42.2919989 174.126251,59.9626065 174.126251,79.4419123 C174.126251,105.061962 161.399734,127.411884 151.193479,139.506655 C149.745766,141.222246 148.103182,143.022521 146.280582,144.863489 C148.118759,146.691555 149.770432,148.480092 151.222452,150.181958 C161.472296,162.195472 174.420664,184.713589 174.420664,210.558088 C174.420664,230.037394 170.613475,247.708001 164.286927,260.485554 C161.404641,266.306827 158.038182,271.068224 154.203298,274.276394 C151.413468,276.610298 148.398077,278.093169 145.147206,278.093169 C141.896336,278.093169 138.880945,276.610298 136.091115,274.276394 C132.256231,271.068224 128.889772,266.306827 126.007486,260.485554 C119.680938,247.708001 115.873749,230.037394 115.873749,210.558088 C115.873749,184.937768 128.600531,162.587643 138.806842,150.492964 C140.254564,148.777386 141.897161,146.977121 143.72214,145.138014 C141.882945,143.309224 140.23042,141.51996 138.777734,139.817422 C128.527603,127.804342 115.579336,105.286298 115.579336,79.4419123 C115.579336,59.9626065 119.386525,42.2919989 125.713073,29.514446 C128.595359,23.6931726 131.961818,18.931776 135.796702,15.7236057 C138.586532,13.389702 141.601923,11.9068308 144.852794,11.9068308 Z" id="Combined-Shape"></path>
            <path d="M144.852794,11.9068308 C148.103664,11.9068308 151.119055,13.389702 153.908885,15.7236057 C157.743769,18.931776 161.110228,23.6931726 163.992514,29.514446 C170.319062,42.2919989 174.126251,59.9626065 174.126251,79.4419123 C174.126251,105.061962 161.399734,127.411884 151.193479,139.506655 C149.745766,141.222246 148.103182,143.022521 146.280582,144.863489 C148.118759,146.691555 149.770432,148.480092 151.222452,150.181958 C161.472296,162.195472 174.420664,184.713589 174.420664,210.558088 C174.420664,230.037394 170.613475,247.708001 164.286927,260.485554 C161.404641,266.306827 158.038182,271.068224 154.203298,274.276394 C151.413468,276.610298 148.398077,278.093169 145.147206,278.093169 C141.896336,278.093169 138.880945,276.610298 136.091115,274.276394 C132.256231,271.068224 128.889772,266.306827 126.007486,260.485554 C119.680938,247.708001 115.873749,230.037394 115.873749,210.558088 C115.873749,184.937768 128.600531,162.587643 138.806842,150.492964 C140.254564,148.777386 141.897161,146.977121 143.72214,145.138014 C141.882945,143.309224 140.23042,141.51996 138.777734,139.817422 C128.527603,127.804342 115.579336,105.286298 115.579336,79.4419123 C115.579336,59.9626065 119.386525,42.2919989 125.713073,29.514446 C128.595359,23.6931726 131.961818,18.931776 135.796702,15.7236057 C138.586532,13.389702 141.601923,11.9068308 144.852794,11.9068308 Z" id="Combined-Shape" transform="translate(145.000000, 145.000000) rotate(90.000000) translate(-145.000000, -145.000000) "></path>
            <path d="M144.852794,11.9068308 C148.103664,11.9068308 151.119055,13.389702 153.908885,15.7236057 C157.743769,18.931776 161.110228,23.6931726 163.992514,29.514446 C170.319062,42.2919989 174.126251,59.9626065 174.126251,79.4419123 C174.126251,105.061962 161.399734,127.411884 151.193479,139.506655 C149.745766,141.222246 148.103182,143.022521 146.280582,144.863489 C148.118759,146.691555 149.770432,148.480092 151.222452,150.181958 C161.472296,162.195472 174.420664,184.713589 174.420664,210.558088 C174.420664,230.037394 170.613475,247.708001 164.286927,260.485554 C161.404641,266.306827 158.038182,271.068224 154.203298,274.276394 C151.413468,276.610298 148.398077,278.093169 145.147206,278.093169 C141.896336,278.093169 138.880945,276.610298 136.091115,274.276394 C132.256231,271.068224 128.889772,266.306827 126.007486,260.485554 C119.680938,247.708001 115.873749,230.037394 115.873749,210.558088 C115.873749,184.937768 128.600531,162.587643 138.806842,150.492964 C140.254564,148.777386 141.897161,146.977121 143.72214,145.138014 C141.882945,143.309224 140.23042,141.51996 138.777734,139.817422 C128.527603,127.804342 115.579336,105.286298 115.579336,79.4419123 C115.579336,59.9626065 119.386525,42.2919989 125.713073,29.514446 C128.595359,23.6931726 131.961818,18.931776 135.796702,15.7236057 C138.586532,13.389702 141.601923,11.9068308 144.852794,11.9068308 Z" id="Combined-Shape" transform="translate(145.000000, 145.000000) rotate(45.000000) translate(-145.000000, -145.000000) "></path>
            <path d="M144.852794,11.9068308 C148.103664,11.9068308 151.119055,13.389702 153.908885,15.7236057 C157.743769,18.931776 161.110228,23.6931726 163.992514,29.514446 C170.319062,42.2919989 174.126251,59.9626065 174.126251,79.4419123 C174.126251,105.061962 161.399734,127.411884 151.193479,139.506655 C149.745766,141.222246 148.103182,143.022521 146.280582,144.863489 C148.118759,146.691555 149.770432,148.480092 151.222452,150.181958 C161.472296,162.195472 174.420664,184.713589 174.420664,210.558088 C174.420664,230.037394 170.613475,247.708001 164.286927,260.485554 C161.404641,266.306827 158.038182,271.068224 154.203298,274.276394 C151.413468,276.610298 148.398077,278.093169 145.147206,278.093169 C141.896336,278.093169 138.880945,276.610298 136.091115,274.276394 C132.256231,271.068224 128.889772,266.306827 126.007486,260.485554 C119.680938,247.708001 115.873749,230.037394 115.873749,210.558088 C115.873749,184.937768 128.600531,162.587643 138.806842,150.492964 C140.254564,148.777386 141.897161,146.977121 143.72214,145.138014 C141.882945,143.309224 140.23042,141.51996 138.777734,139.817422 C128.527603,127.804342 115.579336,105.286298 115.579336,79.4419123 C115.579336,59.9626065 119.386525,42.2919989 125.713073,29.514446 C128.595359,23.6931726 131.961818,18.931776 135.796702,15.7236057 C138.586532,13.389702 141.601923,11.9068308 144.852794,11.9068308 Z" id="Combined-Shape" transform="translate(145.000000, 145.000000) rotate(135.000000) translate(-145.000000, -145.000000) "></path>
            <path d="M144.852794,11.9068308 C148.103664,11.9068308 151.119055,13.389702 153.908885,15.7236057 C157.743769,18.931776 161.110228,23.6931726 163.992514,29.514446 C170.319062,42.2919989 174.126251,59.9626065 174.126251,79.4419123 C174.126251,105.061962 161.399734,127.411884 151.193479,139.506655 C149.745766,141.222246 148.103182,143.022521 146.280582,144.863489 C148.118759,146.691555 149.770432,148.480092 151.222452,150.181958 C161.472296,162.195472 174.420664,184.713589 174.420664,210.558088 C174.420664,230.037394 170.613475,247.708001 164.286927,260.485554 C161.404641,266.306827 158.038182,271.068224 154.203298,274.276394 C151.413468,276.610298 148.398077,278.093169 145.147206,278.093169 C141.896336,278.093169 138.880945,276.610298 136.091115,274.276394 C132.256231,271.068224 128.889772,266.306827 126.007486,260.485554 C119.680938,247.708001 115.873749,230.037394 115.873749,210.558088 C115.873749,184.937768 128.600531,162.587643 138.806842,150.492964 C140.254564,148.777386 141.897161,146.977121 143.72214,145.138014 C141.882945,143.309224 140.23042,141.51996 138.777734,139.817422 C128.527603,127.804342 115.579336,105.286298 115.579336,79.4419123 C115.579336,59.9626065 119.386525,42.2919989 125.713073,29.514446 C128.595359,23.6931726 131.961818,18.931776 135.796702,15.7236057 C138.586532,13.389702 141.601923,11.9068308 144.852794,11.9068308 Z" id="Combined-Shape" transform="translate(145.000000, 145.000000) rotate(22.500000) translate(-145.000000, -145.000000) "></path>
            <path d="M144.852794,11.9068308 C148.103664,11.9068308 151.119055,13.389702 153.908885,15.7236057 C157.743769,18.931776 161.110228,23.6931726 163.992514,29.514446 C170.319062,42.2919989 174.126251,59.9626065 174.126251,79.4419123 C174.126251,105.061962 161.399734,127.411884 151.193479,139.506655 C149.745766,141.222246 148.103182,143.022521 146.280582,144.863489 C148.118759,146.691555 149.770432,148.480092 151.222452,150.181958 C161.472296,162.195472 174.420664,184.713589 174.420664,210.558088 C174.420664,230.037394 170.613475,247.708001 164.286927,260.485554 C161.404641,266.306827 158.038182,271.068224 154.203298,274.276394 C151.413468,276.610298 148.398077,278.093169 145.147206,278.093169 C141.896336,278.093169 138.880945,276.610298 136.091115,274.276394 C132.256231,271.068224 128.889772,266.306827 126.007486,260.485554 C119.680938,247.708001 115.873749,230.037394 115.873749,210.558088 C115.873749,184.937768 128.600531,162.587643 138.806842,150.492964 C140.254564,148.777386 141.897161,146.977121 143.72214,145.138014 C141.882945,143.309224 140.23042,141.51996 138.777734,139.817422 C128.527603,127.804342 115.579336,105.286298 115.579336,79.4419123 C115.579336,59.9626065 119.386525,42.2919989 125.713073,29.514446 C128.595359,23.6931726 131.961818,18.931776 135.796702,15.7236057 C138.586532,13.389702 141.601923,11.9068308 144.852794,11.9068308 Z" id="Combined-Shape" transform="translate(145.000000, 145.000000) rotate(112.500000) translate(-145.000000, -145.000000) "></path>
            <path d="M144.852794,11.9068308 C148.103664,11.9068308 151.119055,13.389702 153.908885,15.7236057 C157.743769,18.931776 161.110228,23.6931726 163.992514,29.514446 C170.319062,42.2919989 174.126251,59.9626065 174.126251,79.4419123 C174.126251,105.061962 161.399734,127.411884 151.193479,139.506655 C149.745766,141.222246 148.103182,143.022521 146.280582,144.863489 C148.118759,146.691555 149.770432,148.480092 151.222452,150.181958 C161.472296,162.195472 174.420664,184.713589 174.420664,210.558088 C174.420664,230.037394 170.613475,247.708001 164.286927,260.485554 C161.404641,266.306827 158.038182,271.068224 154.203298,274.276394 C151.413468,276.610298 148.398077,278.093169 145.147206,278.093169 C141.896336,278.093169 138.880945,276.610298 136.091115,274.276394 C132.256231,271.068224 128.889772,266.306827 126.007486,260.485554 C119.680938,247.708001 115.873749,230.037394 115.873749,210.558088 C115.873749,184.937768 128.600531,162.587643 138.806842,150.492964 C140.254564,148.777386 141.897161,146.977121 143.72214,145.138014 C141.882945,143.309224 140.23042,141.51996 138.777734,139.817422 C128.527603,127.804342 115.579336,105.286298 115.579336,79.4419123 C115.579336,59.9626065 119.386525,42.2919989 125.713073,29.514446 C128.595359,23.6931726 131.961818,18.931776 135.796702,15.7236057 C138.586532,13.389702 141.601923,11.9068308 144.852794,11.9068308 Z" id="Combined-Shape" transform="translate(145.000000, 145.000000) rotate(67.500000) translate(-145.000000, -145.000000) "></path>
            <path d="M144.852794,11.9068308 C148.103664,11.9068308 151.119055,13.389702 153.908885,15.7236057 C157.743769,18.931776 161.110228,23.6931726 163.992514,29.514446 C170.319062,42.2919989 174.126251,59.9626065 174.126251,79.4419123 C174.126251,105.061962 161.399734,127.411884 151.193479,139.506655 C149.745766,141.222246 148.103182,143.022521 146.280582,144.863489 C148.118759,146.691555 149.770432,148.480092 151.222452,150.181958 C161.472296,162.195472 174.420664,184.713589 174.420664,210.558088 C174.420664,230.037394 170.613475,247.708001 164.286927,260.485554 C161.404641,266.306827 158.038182,271.068224 154.203298,274.276394 C151.413468,276.610298 148.398077,278.093169 145.147206,278.093169 C141.896336,278.093169 138.880945,276.610298 136.091115,274.276394 C132.256231,271.068224 128.889772,266.306827 126.007486,260.485554 C119.680938,247.708001 115.873749,230.037394 115.873749,210.558088 C115.873749,184.937768 128.600531,162.587643 138.806842,150.492964 C140.254564,148.777386 141.897161,146.977121 143.72214,145.138014 C141.882945,143.309224 140.23042,141.51996 138.777734,139.817422 C128.527603,127.804342 115.579336,105.286298 115.579336,79.4419123 C115.579336,59.9626065 119.386525,42.2919989 125.713073,29.514446 C128.595359,23.6931726 131.961818,18.931776 135.796702,15.7236057 C138.586532,13.389702 141.601923,11.9068308 144.852794,11.9068308 Z" id="Combined-Shape" transform="translate(145.000000, 145.000000) rotate(157.500000) translate(-145.000000, -145.000000) "></path>
        </g>
    </g>
</svg>